# WaveFront *.obj file (generated by Autodesk ATF)

mtllib partK.mtl

g Solid1

v 0.000000 0.000000 -20.000000
v 0.000000 0.000000 0.000000
v 0.000000 150.000000 -20.000000
v 0.000000 150.000000 0.000000
v 15.000000 20.000000 -5.000000
v 15.000000 20.000000 0.000000
v 15.000000 130.000000 -5.000000
v 15.000000 130.000000 0.000000
v 15.301536 18.289900 -5.000000
v 15.301536 18.289900 0.000000
v 15.301536 131.710100 -5.000000
v 15.301536 131.710100 0.000000
v 16.169778 16.786062 -5.000000
v 16.169778 16.786062 0.000000
v 16.169778 133.213940 -5.000000
v 16.169778 133.213940 0.000000
v 17.500000 15.669873 -5.000000
v 17.500000 15.669873 0.000000
v 17.500000 134.330130 -5.000000
v 17.500000 134.330130 0.000000
v 19.131759 15.075961 -5.000000
v 19.131759 15.075961 0.000000
v 19.131759 134.924040 -5.000000
v 19.131759 134.924040 0.000000
v 20.868242 15.075961 -5.000000
v 20.868242 15.075961 0.000000
v 20.868242 134.924040 -5.000000
v 20.868242 134.924040 0.000000
v 22.500000 15.669873 -5.000000
v 22.500000 15.669873 0.000000
v 22.500000 134.330130 -5.000000
v 22.500000 134.330130 0.000000
v 23.830223 16.786062 -5.000000
v 23.830223 16.786062 0.000000
v 23.830223 133.213940 -5.000000
v 23.830223 133.213940 0.000000
v 24.698462 18.289900 -5.000000
v 24.698462 18.289900 0.000000
v 24.698462 131.710100 -5.000000
v 24.698462 131.710100 0.000000
v 25.000000 20.000000 -5.000000
v 25.000000 20.000000 0.000000
v 25.000000 63.633823 -5.000000
v 25.000000 63.633823 0.000000
v 25.000000 86.366177 -5.000000
v 25.000000 86.366177 0.000000
v 25.000000 130.000000 -5.000000
v 25.000000 130.000000 0.000000
v 27.399464 75.000000 -5.000000
v 27.399464 75.000000 0.000000
v 76.621375 16.314229 -5.000000
v 76.621375 16.314229 0.000000
v 76.621375 133.685770 -5.000000
v 76.621375 133.685770 0.000000
v 78.085742 15.380951 -5.000000
v 78.085742 15.380951 0.000000
v 78.085742 134.619045 -5.000000
v 78.085742 134.619045 0.000000
v 79.780993 15.004798 -5.000000
v 79.780993 15.004798 0.000000
v 79.780993 134.995203 -5.000000
v 79.780993 134.995203 0.000000
v 81.502657 15.231141 -5.000000
v 81.502657 15.231141 0.000000
v 81.502657 134.768858 -5.000000
v 81.502657 134.768858 0.000000
v 83.043079 16.032678 -5.000000
v 83.043079 16.032678 0.000000
v 83.043079 133.967323 -5.000000
v 83.043079 133.967323 0.000000
v 83.378620 23.685770 -5.000000
v 83.378620 23.685770 0.000000
v 83.378620 126.314230 -5.000000
v 83.378620 126.314230 0.000000
v 84.216471 17.312733 -5.000000
v 84.216471 17.312733 0.000000
v 84.216471 132.687263 -5.000000
v 84.216471 132.687263 0.000000
v 84.435472 22.307935 -5.000000
v 84.435472 22.307935 0.000000
v 84.435472 127.692070 -5.000000
v 84.435472 127.692070 0.000000
v 84.881287 18.916912 -5.000000
v 84.881287 18.916912 0.000000
v 84.881287 131.083088 -5.000000
v 84.881287 131.083088 0.000000
v 84.957342 20.651727 -5.000000
v 84.957342 20.651727 0.000000
v 84.957342 129.348269 -5.000000
v 84.957342 129.348269 0.000000
v 100.000000 0.000000 -20.000000
v 100.000000 0.000000 0.000000
v 100.000000 150.000000 -20.000000
v 100.000000 150.000000 0.000000
vt -7.002793 0.000000 0.000000
vt -0.000000 0.000000 0.000000
vt -0.000000 0.500000 0.000000
vt -7.002793 0.500000 0.000000
vt 0.000000 0.000000 0.000000
vt 0.000000 -0.174533 0.000000
vt 0.000000 -0.349066 0.000000
vt 0.000000 -0.523599 0.000000
vt 0.000000 -0.698132 0.000000
vt 0.000000 -0.872665 0.000000
vt 0.000000 -1.047198 0.000000
vt 0.000000 -1.221730 0.000000
vt 0.000000 -1.396263 0.000000
vt 0.000000 -1.570796 0.000000
vt 0.500000 -1.570796 0.000000
vt 0.500000 -1.396263 0.000000
vt 0.500000 -1.221730 0.000000
vt 0.500000 -1.047198 0.000000
vt 0.500000 -0.872665 0.000000
vt 0.500000 -0.698132 0.000000
vt 0.500000 -0.523599 0.000000
vt 0.500000 -0.349066 0.000000
vt 0.500000 -0.174533 0.000000
vt 0.500000 0.000000 0.000000
vt -7.593956 0.000000 0.000000
vt -0.000000 0.000000 0.000000
vt -0.000000 0.500000 0.000000
vt -7.593956 0.500000 0.000000
vt -7.593956 0.000000 0.000000
vt -0.000000 0.000000 0.000000
vt -0.000000 0.500000 0.000000
vt -7.593956 0.500000 0.000000
vt 0.000000 0.000000 0.000000
vt 0.000000 -0.174533 0.000000
vt 0.000000 -0.349066 0.000000
vt 0.000000 -0.523599 0.000000
vt 0.000000 -0.698132 0.000000
vt 0.000000 -0.872665 0.000000
vt 0.000000 -1.047198 0.000000
vt 0.000000 -1.221730 0.000000
vt 0.000000 -1.396263 0.000000
vt 0.000000 -1.570796 0.000000
vt 0.500000 -1.570796 0.000000
vt 0.500000 -1.396263 0.000000
vt 0.500000 -1.221730 0.000000
vt 0.500000 -1.047198 0.000000
vt 0.500000 -0.872665 0.000000
vt 0.500000 -0.698132 0.000000
vt 0.500000 -0.523599 0.000000
vt 0.500000 -0.349066 0.000000
vt 0.500000 -0.174533 0.000000
vt 0.500000 0.000000 0.000000
vt -7.002793 0.000000 0.000000
vt -0.000000 0.000000 0.000000
vt -0.000000 0.500000 0.000000
vt -7.002793 0.500000 0.000000
vt -4.363382 0.000000 0.000000
vt -0.000000 0.000000 0.000000
vt -0.000000 0.500000 0.000000
vt -4.363382 0.500000 0.000000
vt 0.000000 0.000000 0.000000
vt 0.000000 -0.174533 0.000000
vt 0.000000 -0.349066 0.000000
vt 0.000000 -0.523599 0.000000
vt 0.000000 -0.698132 0.000000
vt 0.000000 -0.872665 0.000000
vt 0.000000 -1.047198 0.000000
vt 0.000000 -1.221730 0.000000
vt 0.000000 -1.396263 0.000000
vt 0.000000 -1.570796 0.000000
vt 0.500000 -1.570796 0.000000
vt 0.500000 -1.396263 0.000000
vt 0.500000 -1.221730 0.000000
vt 0.500000 -1.047198 0.000000
vt 0.500000 -0.872665 0.000000
vt 0.500000 -0.698132 0.000000
vt 0.500000 -0.523599 0.000000
vt 0.500000 -0.349066 0.000000
vt 0.500000 -0.174533 0.000000
vt 0.500000 0.000000 0.000000
vt -11.000000 0.000000 0.000000
vt -0.000000 0.000000 0.000000
vt -0.000000 0.500000 0.000000
vt -11.000000 0.500000 0.000000
vt 0.000000 0.000000 0.000000
vt 0.000000 -0.174533 0.000000
vt 0.000000 -0.349066 0.000000
vt 0.000000 -0.523599 0.000000
vt 0.000000 -0.698132 0.000000
vt 0.000000 -0.872665 0.000000
vt 0.000000 -1.047198 0.000000
vt 0.000000 -1.221730 0.000000
vt 0.000000 -1.396263 0.000000
vt 0.000000 -1.570796 0.000000
vt 0.500000 -1.570796 0.000000
vt 0.500000 -1.396263 0.000000
vt 0.500000 -1.221730 0.000000
vt 0.500000 -1.047198 0.000000
vt 0.500000 -0.872665 0.000000
vt 0.500000 -0.698132 0.000000
vt 0.500000 -0.523599 0.000000
vt 0.500000 -0.349066 0.000000
vt 0.500000 -0.174533 0.000000
vt 0.500000 0.000000 0.000000
vt -4.363382 0.000000 0.000000
vt -0.000000 0.000000 0.000000
vt -0.000000 0.500000 0.000000
vt -4.363382 0.500000 0.000000
vt -2.500000 -5.500000 0.000000
vt -2.500000 -1.136618 0.000000
vt 2.662138 -5.868577 0.000000
vt 2.808574 -5.961905 0.000000
vt 2.978099 -5.999520 0.000000
vt 3.150266 -5.976886 0.000000
vt 3.304308 -5.896732 0.000000
vt 3.421647 -5.768727 0.000000
vt 3.488128 -5.608309 0.000000
vt 3.495734 -5.434827 0.000000
vt 3.443547 -5.269207 0.000000
vt 3.337862 -5.131423 0.000000
vt -2.260054 0.000000 0.000000
vt 3.337862 5.131423 0.000000
vt 3.443547 5.269207 0.000000
vt 3.495734 5.434827 0.000000
vt 3.488128 5.608309 0.000000
vt 3.421647 5.768727 0.000000
vt 3.304308 5.896732 0.000000
vt 3.150266 5.976886 0.000000
vt 2.978099 5.999520 0.000000
vt 2.808574 5.961905 0.000000
vt 2.662138 5.868577 0.000000
vt -2.500000 1.136618 0.000000
vt -2.500000 5.500000 0.000000
vt -2.530154 5.671010 0.000000
vt -2.616978 5.821394 0.000000
vt -2.750000 5.933012 0.000000
vt -2.913176 5.992404 0.000000
vt -3.086824 5.992404 0.000000
vt -3.250000 5.933012 0.000000
vt -3.383022 5.821394 0.000000
vt -3.469846 5.671010 0.000000
vt -3.500000 5.500000 0.000000
vt -3.500000 -5.500000 0.000000
vt -3.469846 -5.671010 0.000000
vt -3.383022 -5.821394 0.000000
vt -3.250000 -5.933012 0.000000
vt -3.086824 -5.992404 0.000000
vt -2.913176 -5.992404 0.000000
vt -2.750000 -5.933012 0.000000
vt -2.616978 -5.821394 0.000000
vt -2.530154 -5.671010 0.000000
vt 0.000000 0.000000 0.000000
vt 15.000000 0.000000 0.000000
vt 15.000000 2.000000 0.000000
vt 0.000000 2.000000 0.000000
vt 0.000000 0.000000 0.000000
vt 10.000000 0.000000 0.000000
vt 10.000000 2.000000 0.000000
vt 0.000000 2.000000 0.000000
vt 0.000000 0.000000 0.000000
vt 15.000000 0.000000 0.000000
vt 15.000000 2.000000 0.000000
vt 0.000000 2.000000 0.000000
vt 0.000000 0.000000 0.000000
vt 10.000000 0.000000 0.000000
vt 10.000000 2.000000 0.000000
vt 0.000000 2.000000 0.000000
vt 2.662138 -5.868577 0.000000
vt -2.500000 -1.136618 0.000000
vt -2.500000 -5.500000 0.000000
vt -2.530154 -5.671010 0.000000
vt -2.616978 -5.821394 0.000000
vt -2.750000 -5.933012 0.000000
vt -2.913176 -5.992404 0.000000
vt -3.086824 -5.992404 0.000000
vt -3.250000 -5.933012 0.000000
vt -3.383022 -5.821394 0.000000
vt -3.469846 -5.671010 0.000000
vt -3.500000 -5.500000 0.000000
vt -3.500000 5.500000 0.000000
vt -3.469846 5.671010 0.000000
vt -3.383022 5.821394 0.000000
vt -3.250000 5.933012 0.000000
vt -3.086824 5.992404 0.000000
vt -2.913176 5.992404 0.000000
vt -2.750000 5.933012 0.000000
vt -2.616978 5.821394 0.000000
vt -2.530154 5.671010 0.000000
vt -2.500000 5.500000 0.000000
vt -2.500000 1.136618 0.000000
vt 2.662138 5.868577 0.000000
vt 2.808574 5.961905 0.000000
vt 2.978099 5.999520 0.000000
vt 3.150266 5.976886 0.000000
vt 3.304308 5.896732 0.000000
vt 3.421647 5.768727 0.000000
vt 3.488128 5.608309 0.000000
vt 3.495734 5.434827 0.000000
vt 3.443547 5.269207 0.000000
vt 3.337862 5.131423 0.000000
vt -2.260054 0.000000 0.000000
vt 3.337862 -5.131423 0.000000
vt 3.443547 -5.269207 0.000000
vt 3.495734 -5.434827 0.000000
vt 3.488128 -5.608309 0.000000
vt 3.421647 -5.768727 0.000000
vt 3.304308 -5.896732 0.000000
vt 3.150266 -5.976886 0.000000
vt 2.978099 -5.999520 0.000000
vt 2.808574 -5.961905 0.000000
vt -5.000000 -7.500000 0.000000
vt 5.000000 -7.500000 0.000000
vt 5.000000 7.500000 0.000000
vt -5.000000 7.500000 0.000000
vt -5.000000 -7.500000 0.000000
vt 5.000000 -7.500000 0.000000
vt 5.000000 7.500000 0.000000
vt -5.000000 7.500000 0.000000
vn 0.067572 0.073715 0.000000
vn 0.067572 0.073715 0.000000
vn 0.067572 0.073715 0.000000
vn 0.067572 0.073715 0.000000
vn 0.067572 0.073715 0.000000
vn 0.038285 0.092381 0.000000
vn 0.004380 0.099904 0.000000
vn -0.030053 0.095377 0.000000
vn -0.060862 0.079346 0.000000
vn -0.084329 0.053745 0.000000
vn -0.097626 0.021662 0.000000
vn -0.099147 -0.013035 0.000000
vn -0.088710 -0.046159 0.000000
vn -0.067572 -0.073715 0.000000
vn -0.067572 -0.073715 0.000000
vn -0.088710 -0.046159 0.000000
vn -0.099147 -0.013035 0.000000
vn -0.097626 0.021662 0.000000
vn -0.084329 0.053745 0.000000
vn -0.060862 0.079346 0.000000
vn -0.030053 0.095377 0.000000
vn 0.004380 0.099904 0.000000
vn 0.038285 0.092381 0.000000
vn 0.067572 0.073715 0.000000
vn -0.067572 -0.073715 0.000000
vn -0.067572 -0.073715 0.000000
vn -0.067572 -0.073715 0.000000
vn -0.067572 -0.073715 0.000000
vn -0.067572 0.073715 0.000000
vn -0.067572 0.073715 0.000000
vn -0.067572 0.073715 0.000000
vn -0.067572 0.073715 0.000000
vn -0.067572 0.073715 0.000000
vn -0.088710 0.046159 0.000000
vn -0.099147 0.013035 0.000000
vn -0.097626 -0.021662 0.000000
vn -0.084329 -0.053745 0.000000
vn -0.060862 -0.079346 0.000000
vn -0.030053 -0.095377 0.000000
vn 0.004380 -0.099904 0.000000
vn 0.038285 -0.092381 0.000000
vn 0.067572 -0.073715 0.000000
vn 0.067572 -0.073715 0.000000
vn 0.038285 -0.092381 0.000000
vn 0.004380 -0.099904 0.000000
vn -0.030053 -0.095377 0.000000
vn -0.060862 -0.079346 0.000000
vn -0.084329 -0.053745 0.000000
vn -0.097626 -0.021662 0.000000
vn -0.099147 0.013035 0.000000
vn -0.088710 0.046159 0.000000
vn -0.067572 0.073715 0.000000
vn 0.067572 -0.073715 0.000000
vn 0.067572 -0.073715 0.000000
vn 0.067572 -0.073715 0.000000
vn 0.067572 -0.073715 0.000000
vn -0.100000 0.000000 0.000000
vn -0.100000 0.000000 0.000000
vn -0.100000 0.000000 0.000000
vn -0.100000 0.000000 0.000000
vn -0.100000 0.000000 0.000000
vn -0.093969 -0.034202 0.000000
vn -0.076604 -0.064279 0.000000
vn -0.050000 -0.086603 0.000000
vn -0.017365 -0.098481 0.000000
vn 0.017365 -0.098481 0.000000
vn 0.050000 -0.086603 0.000000
vn 0.076604 -0.064279 0.000000
vn 0.093969 -0.034202 0.000000
vn 0.100000 0.000000 0.000000
vn 0.100000 0.000000 0.000000
vn 0.093969 -0.034202 0.000000
vn 0.076604 -0.064279 0.000000
vn 0.050000 -0.086603 0.000000
vn 0.017365 -0.098481 0.000000
vn -0.017365 -0.098481 0.000000
vn -0.050000 -0.086603 0.000000
vn -0.076604 -0.064279 0.000000
vn -0.093969 -0.034202 0.000000
vn -0.100000 0.000000 0.000000
vn 0.100000 0.000000 0.000000
vn 0.100000 0.000000 0.000000
vn 0.100000 0.000000 0.000000
vn 0.100000 0.000000 0.000000
vn 0.100000 0.000000 0.000000
vn 0.093969 0.034202 0.000000
vn 0.076604 0.064279 0.000000
vn 0.050000 0.086603 0.000000
vn 0.017365 0.098481 0.000000
vn -0.017365 0.098481 0.000000
vn -0.050000 0.086603 0.000000
vn -0.076604 0.064279 0.000000
vn -0.093969 0.034202 0.000000
vn -0.100000 0.000000 0.000000
vn -0.100000 0.000000 0.000000
vn -0.093969 0.034202 0.000000
vn -0.076604 0.064279 0.000000
vn -0.050000 0.086603 0.000000
vn -0.017365 0.098481 0.000000
vn 0.017365 0.098481 0.000000
vn 0.050000 0.086603 0.000000
vn 0.076604 0.064279 0.000000
vn 0.093969 0.034202 0.000000
vn 0.100000 0.000000 0.000000
vn -0.100000 0.000000 0.000000
vn -0.100000 0.000000 0.000000
vn -0.100000 0.000000 0.000000
vn -0.100000 0.000000 0.000000
vn 0.000000 0.000000 0.100000
vn 0.000000 0.000000 0.100000
vn 0.000000 0.000000 0.100000
vn 0.000000 0.000000 0.100000
vn 0.000000 0.000000 0.100000
vn 0.000000 0.000000 0.100000
vn 0.000000 0.000000 0.100000
vn 0.000000 0.000000 0.100000
vn 0.000000 0.000000 0.100000
vn 0.000000 0.000000 0.100000
vn 0.000000 0.000000 0.100000
vn 0.000000 0.000000 0.100000
vn 0.000000 0.000000 0.100000
vn 0.000000 0.000000 0.100000
vn 0.000000 0.000000 0.100000
vn 0.000000 0.000000 0.100000
vn 0.000000 0.000000 0.100000
vn 0.000000 0.000000 0.100000
vn 0.000000 0.000000 0.100000
vn 0.000000 0.000000 0.100000
vn 0.000000 0.000000 0.100000
vn 0.000000 0.000000 0.100000
vn 0.000000 0.000000 0.100000
vn 0.000000 0.000000 0.100000
vn 0.000000 0.000000 0.100000
vn 0.000000 0.000000 0.100000
vn 0.000000 0.000000 0.100000
vn 0.000000 0.000000 0.100000
vn 0.000000 0.000000 0.100000
vn 0.000000 0.000000 0.100000
vn 0.000000 0.000000 0.100000
vn 0.000000 0.000000 0.100000
vn 0.000000 0.000000 0.100000
vn 0.000000 0.000000 0.100000
vn 0.000000 0.000000 0.100000
vn 0.000000 0.000000 0.100000
vn 0.000000 0.000000 0.100000
vn 0.000000 0.000000 0.100000
vn 0.000000 0.000000 0.100000
vn 0.000000 0.000000 0.100000
vn 0.000000 0.000000 0.100000
vn 0.000000 0.000000 0.100000
vn 0.000000 0.000000 0.100000
vn 0.100000 0.000000 0.000000
vn 0.100000 0.000000 0.000000
vn 0.100000 0.000000 0.000000
vn 0.100000 0.000000 0.000000
vn 0.000000 0.100000 0.000000
vn 0.000000 0.100000 0.000000
vn 0.000000 0.100000 0.000000
vn 0.000000 0.100000 0.000000
vn -0.100000 0.000000 0.000000
vn -0.100000 0.000000 0.000000
vn -0.100000 0.000000 0.000000
vn -0.100000 0.000000 0.000000
vn 0.000000 -0.100000 0.000000
vn 0.000000 -0.100000 0.000000
vn 0.000000 -0.100000 0.000000
vn 0.000000 -0.100000 0.000000
vn 0.000000 0.000000 0.100000
vn 0.000000 0.000000 0.100000
vn 0.000000 0.000000 0.100000
vn 0.000000 0.000000 0.100000
vn 0.000000 0.000000 0.100000
vn 0.000000 0.000000 0.100000
vn 0.000000 0.000000 0.100000
vn 0.000000 0.000000 0.100000
vn 0.000000 0.000000 0.100000
vn 0.000000 0.000000 0.100000
vn 0.000000 0.000000 0.100000
vn 0.000000 0.000000 0.100000
vn 0.000000 0.000000 0.100000
vn 0.000000 0.000000 0.100000
vn 0.000000 0.000000 0.100000
vn 0.000000 0.000000 0.100000
vn 0.000000 0.000000 0.100000
vn 0.000000 0.000000 0.100000
vn 0.000000 0.000000 0.100000
vn 0.000000 0.000000 0.100000
vn 0.000000 0.000000 0.100000
vn 0.000000 0.000000 0.100000
vn 0.000000 0.000000 0.100000
vn 0.000000 0.000000 0.100000
vn 0.000000 0.000000 0.100000
vn 0.000000 0.000000 0.100000
vn 0.000000 0.000000 0.100000
vn 0.000000 0.000000 0.100000
vn 0.000000 0.000000 0.100000
vn 0.000000 0.000000 0.100000
vn 0.000000 0.000000 0.100000
vn 0.000000 0.000000 0.100000
vn 0.000000 0.000000 0.100000
vn 0.000000 0.000000 0.100000
vn 0.000000 0.000000 0.100000
vn 0.000000 0.000000 0.100000
vn 0.000000 0.000000 0.100000
vn 0.000000 0.000000 0.100000
vn 0.000000 0.000000 0.100000
vn 0.000000 0.000000 0.100000
vn 0.000000 0.000000 0.100000
vn 0.000000 0.000000 0.100000
vn 0.000000 0.000000 0.100000
vn 0.000000 0.000000 0.100000
vn 0.000000 0.000000 0.100000
vn 0.000000 0.000000 0.100000
vn 0.000000 0.000000 0.100000
vn 0.000000 0.000000 -0.100000
vn 0.000000 0.000000 -0.100000
vn 0.000000 0.000000 -0.100000
vn 0.000000 0.000000 -0.100000
usemtl 244,244,244
f 44/1/1 52/2/2 43/4/4
f 43/4/4 52/2/2 51/3/3
f 52/5/5 56/6/6 51/24/24
f 51/24/24 56/6/6 55/23/23
f 55/23/23 56/6/6 60/7/7
f 55/23/23 60/7/7 59/22/22
f 59/22/22 60/7/7 64/8/8
f 59/22/22 64/8/8 63/21/21
f 63/21/21 64/8/8 68/9/9
f 63/21/21 68/9/9 67/20/20
f 67/20/20 68/9/9 76/10/10
f 67/20/20 76/10/10 75/19/19
f 75/19/19 76/10/10 84/11/11
f 75/19/19 84/11/11 83/18/18
f 83/18/18 84/11/11 88/12/12
f 83/18/18 88/12/12 87/17/17
f 87/17/17 88/12/12 80/13/13
f 87/17/17 80/13/13 79/16/16
f 79/16/16 80/13/13 71/15/15
f 71/15/15 80/13/13 72/14/14
f 72/25/25 50/26/26 71/28/28
f 71/28/28 50/26/26 49/27/27
f 50/29/29 74/30/30 49/32/32
f 49/32/32 74/30/30 73/31/31
f 74/33/33 82/34/34 73/52/52
f 73/52/52 82/34/34 81/51/51
f 81/51/51 82/34/34 90/35/35
f 81/51/51 90/35/35 89/50/50
f 89/50/50 90/35/35 86/36/36
f 89/50/50 86/36/36 85/49/49
f 85/49/49 86/36/36 78/37/37
f 85/49/49 78/37/37 77/48/48
f 77/48/48 78/37/37 70/38/38
f 77/48/48 70/38/38 69/47/47
f 69/47/47 70/38/38 66/39/39
f 69/47/47 66/39/39 65/46/46
f 65/46/46 66/39/39 62/40/40
f 65/46/46 62/40/40 61/45/45
f 61/45/45 62/40/40 58/41/41
f 61/45/45 58/41/41 57/44/44
f 57/44/44 58/41/41 53/43/43
f 53/43/43 58/41/41 54/42/42
f 54/53/53 46/54/54 53/56/56
f 53/56/56 46/54/54 45/55/55
f 46/57/57 48/58/58 45/60/60
f 45/60/60 48/58/58 47/59/59
f 48/61/61 40/62/62 47/80/80
f 47/80/80 40/62/62 39/79/79
f 39/79/79 40/62/62 36/63/63
f 39/79/79 36/63/63 35/78/78
f 35/78/78 36/63/63 32/64/64
f 35/78/78 32/64/64 31/77/77
f 31/77/77 32/64/64 28/65/65
f 31/77/77 28/65/65 27/76/76
f 27/76/76 28/65/65 24/66/66
f 27/76/76 24/66/66 23/75/75
f 23/75/75 24/66/66 20/67/67
f 23/75/75 20/67/67 19/74/74
f 19/74/74 20/67/67 16/68/68
f 19/74/74 16/68/68 15/73/73
f 15/73/73 16/68/68 12/69/69
f 15/73/73 12/69/69 11/72/72
f 11/72/72 12/69/69 7/71/71
f 7/71/71 12/69/69 8/70/70
f 8/81/81 6/82/82 7/84/84
f 7/84/84 6/82/82 5/83/83
f 6/85/85 10/86/86 5/104/104
f 5/104/104 10/86/86 9/103/103
f 9/103/103 10/86/86 14/87/87
f 9/103/103 14/87/87 13/102/102
f 13/102/102 14/87/87 18/88/88
f 13/102/102 18/88/88 17/101/101
f 17/101/101 18/88/88 22/89/89
f 17/101/101 22/89/89 21/100/100
f 21/100/100 22/89/89 26/90/90
f 21/100/100 26/90/90 25/99/99
f 25/99/99 26/90/90 30/91/91
f 25/99/99 30/91/91 29/98/98
f 29/98/98 30/91/91 34/92/92
f 29/98/98 34/92/92 33/97/97
f 33/97/97 34/92/92 38/93/93
f 33/97/97 38/93/93 37/96/96
f 37/96/96 38/93/93 41/95/95
f 41/95/95 38/93/93 42/94/94
f 42/105/105 44/106/106 41/108/108
f 41/108/108 44/106/106 43/107/107
f 43/110/110 5/143/143 41/109/109
f 41/109/109 5/143/143 25/148/148
f 41/109/109 25/148/148 29/149/149
f 51/111/111 49/121/121 43/110/110
f 43/110/110 49/121/121 45/132/132
f 43/110/110 45/132/132 5/143/143
f 5/143/143 45/132/132 7/142/142
f 7/142/142 45/132/132 47/133/133
f 7/142/142 47/133/133 23/138/138
f 23/138/138 47/133/133 27/137/137
f 27/137/137 47/133/133 31/136/136
f 31/136/136 47/133/133 35/135/135
f 35/135/135 47/133/133 39/134/134
f 49/121/121 51/111/111 71/120/120
f 71/120/120 51/111/111 55/112/112
f 71/120/120 55/112/112 59/113/113
f 59/113/113 63/114/114 71/120/120
f 71/120/120 63/114/114 67/115/115
f 71/120/120 67/115/115 75/116/116
f 71/120/120 75/116/116 79/119/119
f 79/119/119 75/116/116 83/117/117
f 79/119/119 83/117/117 87/118/118
f 45/132/132 49/121/121 53/131/131
f 53/131/131 49/121/121 73/122/122
f 53/131/131 73/122/122 57/130/130
f 57/130/130 73/122/122 61/129/129
f 61/129/129 73/122/122 65/128/128
f 65/128/128 73/122/122 69/127/127
f 69/127/127 73/122/122 77/126/126
f 77/126/126 73/122/122 81/123/123
f 77/126/126 81/123/123 85/125/125
f 85/125/125 81/123/123 89/124/124
f 23/138/138 19/139/139 7/142/142
f 7/142/142 19/139/139 15/140/140
f 7/142/142 15/140/140 11/141/141
f 9/144/144 13/145/145 5/143/143
f 5/143/143 13/145/145 17/146/146
f 5/143/143 17/146/146 21/147/147
f 21/147/147 25/148/148 5/143/143
f 29/149/149 33/150/150 41/109/109
f 41/109/109 33/150/150 37/151/151
f 94/152/152 92/153/153 93/155/155
f 93/155/155 92/153/153 91/154/154
f 4/156/156 94/157/157 3/159/159
f 3/159/159 94/157/157 93/158/158
f 2/160/160 4/161/161 1/163/163
f 1/163/163 4/161/161 3/162/162
f 92/164/164 2/165/165 91/167/167
f 91/167/167 2/165/165 1/166/166
f 44/169/169 42/170/170 52/168/168
f 52/168/168 42/170/170 38/171/171
f 52/168/168 38/171/171 34/172/172
f 34/172/172 30/173/173 52/168/168
f 52/168/168 30/173/173 56/210/210
f 56/210/210 30/173/173 2/211/211
f 56/210/210 2/211/211 92/212/212
f 30/173/173 26/174/174 2/211/211
f 2/211/211 26/174/174 22/175/175
f 2/211/211 22/175/175 18/176/176
f 18/176/176 14/177/177 2/211/211
f 2/211/211 14/177/177 10/178/178
f 2/211/211 10/178/178 6/179/179
f 6/179/179 8/180/180 2/211/211
f 2/211/211 8/180/180 4/214/214
f 4/214/214 8/180/180 12/181/181
f 4/214/214 12/181/181 16/182/182
f 16/182/182 20/183/183 4/214/214
f 4/214/214 20/183/183 24/184/184
f 4/214/214 24/184/184 28/185/185
f 28/185/185 32/186/186 4/214/214
f 4/214/214 32/186/186 58/192/192
f 4/214/214 58/192/192 94/213/213
f 94/213/213 58/192/192 62/193/193
f 94/213/213 62/193/193 66/194/194
f 58/192/192 32/186/186 54/191/191
f 54/191/191 32/186/186 36/187/187
f 54/191/191 36/187/187 40/188/188
f 40/188/188 48/189/189 54/191/191
f 54/191/191 48/189/189 46/190/190
f 66/194/194 70/195/195 94/213/213
f 94/213/213 70/195/195 78/196/196
f 94/213/213 78/196/196 86/197/197
f 86/197/197 90/198/198 94/213/213
f 94/213/213 90/198/198 82/199/199
f 94/213/213 82/199/199 92/212/212
f 92/212/212 82/199/199 80/203/203
f 92/212/212 80/203/203 88/204/204
f 82/199/199 74/200/200 80/203/203
f 80/203/203 74/200/200 72/202/202
f 72/202/202 74/200/200 50/201/201
f 88/204/204 84/205/205 92/212/212
f 92/212/212 84/205/205 76/206/206
f 92/212/212 76/206/206 68/207/207
f 68/207/207 64/208/208 92/212/212
f 92/212/212 64/208/208 60/209/209
f 92/212/212 60/209/209 56/210/210
f 91/215/215 1/216/216 93/218/218
f 93/218/218 1/216/216 3/217/217

# 94 vertices
# 218 texture params
# 218 normals
# 184 facets

# 1 groups
